<svg xmlns="http://www.w3.org/2000/svg" xmlns:xlink="http://www.w3.org/1999/xlink" width="410" height="85" viewBox="0 0 410 85">
  <defs>
    <linearGradient id="linear-gradient" y1="0.5" x2="1" y2="0.5" gradientUnits="objectBoundingBox">
      <stop offset="0" stop-color="#008751"/>
      <stop offset="0.44" stop-color="#008b4c"/>
      <stop offset="0.993" stop-color="#00983c"/>
      <stop offset="0.995" stop-color="#00983c"/>
    </linearGradient>
    <linearGradient id="linear-gradient-2" y1="0.5" x2="1" y2="0.5" gradientUnits="objectBoundingBox">
      <stop offset="0.005" stop-color="#ffd300"/>
      <stop offset="0.205" stop-color="#fed20a"/>
      <stop offset="0.533" stop-color="#fcd113"/>
      <stop offset="1" stop-color="#fcd116"/>
    </linearGradient>
    <clipPath id="clip-path">
      <path id="Tracé_3" data-name="Tracé 3" d="M137.182,18.041c-2.675,1.1-15.5,6.722-13.068,22.705A54.443,54.443,0,0,0,129.6,55.494c.72,1.475,4.767,8.54,12.313,2.2C149.529,51.344,192.47,0,192.47,0s-52.579,16.943-55.289,18.041" transform="translate(-123.808)"/>
    </clipPath>
    <linearGradient id="linear-gradient-4" x1="0.696" y1="-0.435" x2="0.304" y2="1.25" gradientUnits="objectBoundingBox">
      <stop offset="0.005" stop-color="#00983c"/>
      <stop offset="0.085" stop-color="#00963f"/>
      <stop offset="0.568" stop-color="#008b4c"/>
      <stop offset="1" stop-color="#008751"/>
    </linearGradient>
    <linearGradient id="linear-gradient-5" y1="0.499" x2="1" y2="0.499" gradientUnits="objectBoundingBox">
      <stop offset="0.005" stop-color="#e20600"/>
      <stop offset="0.038" stop-color="#e30806"/>
      <stop offset="0.16" stop-color="#e50c18"/>
      <stop offset="0.308" stop-color="#e70f24"/>
      <stop offset="0.51" stop-color="#e8112b"/>
      <stop offset="1" stop-color="#e8112d"/>
    </linearGradient>
    <clipPath id="clip-path-2">
      <path id="Tracé_7" data-name="Tracé 7" d="M271.9,132.137a9.638,9.638,0,1,0,9.638-9.638,9.638,9.638,0,0,0-9.638,9.638" transform="translate(-271.9 -122.499)"/>
    </clipPath>
    <linearGradient id="linear-gradient-6" x1="-7.251" y1="6.044" x2="-7.202" y2="6.044" xlink:href="#linear-gradient-5"/>
    <clipPath id="clip-Personnalisée_1">
      <rect width="410" height="85"/>
    </clipPath>
  </defs>
  <g id="Personnalisée_1" data-name="Personnalisée – 1" clip-path="url(#clip-Personnalisée_1)">
    <rect width="410" height="85" fill="#fff"/>
    <g id="Logo_Airport" data-name="Logo / Airport" transform="translate(-164 -98.833)">
      <path id="Aéroport_International_DE_COTONOU" data-name="Aéroport  International  DE COTONOU" d="M11.3,0h1.89L7.47-12.6H5.688L-.018,0H1.836L3.222-3.15h6.7ZM3.852-4.59,6.57-10.764,9.288-4.59ZM22.824-15.966h-2.2l-2.448,2.34H19.8Zm-5.958,14.4V-5.634h6.318v-1.53H16.866v-3.87h7.092V-12.6H15.066V0H24.21V-1.566ZM37.512,0,34.524-4.23A3.976,3.976,0,0,0,37.3-8.208c0-2.736-1.98-4.392-5.256-4.392H27.126V0h1.8V-3.834H32.04c.27,0,.54-.018.792-.036L35.55,0ZM31.986-5.364h-3.06v-5.67h3.06c2.3,0,3.51,1.026,3.51,2.826S34.29-5.364,31.986-5.364ZM45.9.144A6.384,6.384,0,0,0,52.578-6.3,6.384,6.384,0,0,0,45.9-12.744,6.4,6.4,0,0,0,39.186-6.3,6.4,6.4,0,0,0,45.9.144Zm0-1.6A4.74,4.74,0,0,1,40.986-6.3,4.74,4.74,0,0,1,45.9-11.142,4.731,4.731,0,0,1,50.778-6.3,4.731,4.731,0,0,1,45.9-1.458ZM60.246-12.6H55.332V0h1.8V-3.816h3.114c3.276,0,5.256-1.656,5.256-4.392S63.522-12.6,60.246-12.6Zm-.054,7.218h-3.06v-5.652h3.06c2.3,0,3.51,1.026,3.51,2.826S62.5-5.382,60.192-5.382ZM74.016.144A6.384,6.384,0,0,0,80.694-6.3a6.384,6.384,0,0,0-6.678-6.444A6.4,6.4,0,0,0,67.3-6.3,6.4,6.4,0,0,0,74.016.144Zm0-1.6A4.74,4.74,0,0,1,69.1-6.3a4.74,4.74,0,0,1,4.914-4.842A4.731,4.731,0,0,1,78.894-6.3,4.731,4.731,0,0,1,74.016-1.458ZM93.834,0,90.846-4.23a3.976,3.976,0,0,0,2.772-3.978c0-2.736-1.98-4.392-5.256-4.392H83.448V0h1.8V-3.834h3.114c.27,0,.54-.018.792-.036L91.872,0ZM88.308-5.364h-3.06v-5.67h3.06c2.3,0,3.51,1.026,3.51,2.826S90.612-5.364,88.308-5.364ZM98.856,0h1.782V-11.034h4.32V-12.6H94.536v1.566h4.32ZM1.89,26h1.8V13.4H1.89ZM16.506,13.4v9.4l-7.56-9.4H7.47V26h1.8V16.6L16.83,26h1.476V13.4ZM24.588,26H26.37V14.966h4.32V13.4H20.268v1.566h4.32Zm9.864-1.566V20.366H40.77v-1.53H34.452v-3.87h7.092V13.4H32.652V26H41.8V24.434ZM55.1,26,52.11,21.77a3.976,3.976,0,0,0,2.772-3.978c0-2.736-1.98-4.392-5.256-4.392H44.712V26h1.8V22.166h3.114c.27,0,.54-.018.792-.036L53.136,26Zm-5.526-5.364h-3.06v-5.67h3.06c2.3,0,3.51,1.026,3.51,2.826S51.876,20.636,49.572,20.636ZM66.834,13.4v9.4l-7.56-9.4H57.8V26h1.8V16.6l7.56,9.4h1.476V13.4ZM81.828,26h1.89L77.994,13.4H76.212L70.506,26H72.36l1.386-3.15h6.7Zm-7.452-4.59,2.718-6.174,2.718,6.174ZM87.462,26h1.782V14.966h4.32V13.4H83.142v1.566h4.32Zm8.064,0h1.8V13.4h-1.8Zm11.268.144A6.449,6.449,0,1,0,100.08,19.7,6.384,6.384,0,0,0,106.794,26.144Zm0-1.6A4.74,4.74,0,0,1,101.88,19.7a4.9,4.9,0,0,1,9.792,0A4.731,4.731,0,0,1,106.794,24.542ZM125.262,13.4v9.4l-7.56-9.4h-1.476V26h1.8V16.6l7.56,9.4h1.476V13.4ZM140.256,26h1.89l-5.724-12.6H134.64L128.934,26h1.854l1.386-3.15h6.7ZM132.8,21.41l2.718-6.174,2.718,6.174ZM144.018,26h8.622V24.434h-6.822V13.4h-1.8ZM1.89,52H7.2c4.05,0,6.8-2.556,6.8-6.3s-2.754-6.3-6.8-6.3H1.89Zm1.8-1.566V40.966h3.4c3.114,0,5.112,1.908,5.112,4.734s-2,4.734-5.112,4.734Zm14.868,0V46.366h6.318v-1.53H18.558v-3.87H25.65V39.4H16.758V52H25.9V50.434Zm20.736,1.71a6.252,6.252,0,0,0,4.806-1.98L42.93,49.03a4.685,4.685,0,0,1-3.546,1.512,4.843,4.843,0,1,1,0-9.684,4.669,4.669,0,0,1,3.546,1.494l1.17-1.134a6.226,6.226,0,0,0-4.788-1.962,6.448,6.448,0,1,0-.018,12.888Zm12.8,0a6.448,6.448,0,1,0,0-12.888,6.449,6.449,0,1,0,0,12.888Zm0-1.6A4.842,4.842,0,1,1,56.97,45.7,4.74,4.74,0,0,1,52.092,50.542ZM63.846,52h1.782V40.966h4.32V39.4H59.526v1.566h4.32Zm13.572.144A6.449,6.449,0,1,0,70.7,45.7,6.384,6.384,0,0,0,77.418,52.144Zm0-1.6A4.842,4.842,0,1,1,82.3,45.7,4.74,4.74,0,0,1,77.418,50.542ZM95.886,39.4v9.4l-7.56-9.4H86.85V52h1.8V42.6L96.21,52h1.476V39.4Zm11.268,12.744A6.449,6.449,0,1,0,100.44,45.7,6.384,6.384,0,0,0,107.154,52.144Zm0-1.6a4.842,4.842,0,1,1,4.878-4.842A4.74,4.74,0,0,1,107.154,50.542Zm14.652,1.6c3.33,0,5.328-1.926,5.328-5.58V39.4h-1.746v7.092c0,2.79-1.3,4.05-3.564,4.05s-3.546-1.26-3.546-4.05V39.4h-1.8v7.164C116.478,50.218,118.494,52.144,121.806,52.144Z" transform="translate(418 125)" fill="#666"/>
      <line id="Ligne_19" data-name="Ligne 19" y2="66" transform="translate(400.5 111.5)" fill="none" stroke="#707070" stroke-width="0.5"/>
      <g id="Logo_Aeroport" data-name="Logo Aeroport" transform="translate(164 99.833)">
        <path id="Tracé_1" data-name="Tracé 1" d="M107.68.7S54.415,16.786,51.4,17.78c-2.984.96-10.8,6.448-10.941,14.508,0,0-.72-12.21-21.848-12.553-21.1-.377-23.532-2.435-11.082-4.15S107.68.7,107.68.7" transform="translate(0.025 -0.46)" fill="url(#linear-gradient)"/>
        <g id="Groupe_2" data-name="Groupe 2" transform="translate(42.046)">
          <path id="Tracé_2" data-name="Tracé 2" d="M137.182,18.041c-2.675,1.1-15.5,6.722-13.068,22.705A54.443,54.443,0,0,0,129.6,55.494c.72,1.475,4.767,8.54,12.313,2.2C149.529,51.344,192.47,0,192.47,0s-52.579,16.943-55.289,18.041" transform="translate(-123.808)" fill="url(#linear-gradient-2)"/>
          <g id="Groupe_1" data-name="Groupe 1" clip-path="url(#clip-path)">
            <rect id="Rectangle_1" data-name="Rectangle 1" width="70.757" height="64.035" transform="translate(-2.095)" fill="url(#linear-gradient-2)"/>
          </g>
        </g>
        <path id="Tracé_4" data-name="Tracé 4" d="M287.207,0S278.358,10.564,268,22.7a44.626,44.626,0,0,0,7.957,1.818c13.548,1.578,13.891-4.87,13.891-7.58C289.882,14.268,287.207,0,287.207,0" transform="translate(-176.754)" fill="#00983c"/>
        <path id="Tracé_5" data-name="Tracé 5" d="M160.9,18.041c-.24.1-.583.24-.995.412,18.041-3.5,27.61,1.269,37.042,4.219C207.334,10.564,216.183,0,216.183,0S163.6,16.943,160.9,18.041" transform="translate(-105.553)" fill="url(#linear-gradient-4)"/>
        <g id="Groupe_4" data-name="Groupe 4" transform="translate(92.584 41.65)">
          <path id="Tracé_6" data-name="Tracé 6" d="M271.9,132.137a9.638,9.638,0,1,0,9.638-9.638,9.638,9.638,0,0,0-9.638,9.638" transform="translate(-271.9 -122.499)" fill="url(#linear-gradient-5)"/>
          <g id="Groupe_3" data-name="Groupe 3" clip-path="url(#clip-path-2)">
            <rect id="Rectangle_2" data-name="Rectangle 2" width="19.276" height="19.276" transform="translate(0 -0.034)" fill="url(#linear-gradient-6)"/>
          </g>
        </g>
        <path id="Tracé_8" data-name="Tracé 8" d="M238.733,137.711a1,1,0,0,1,.309.069.534.534,0,0,1,.274.206l1.646,1.715a6.884,6.884,0,0,1-2.71,2.126,9.477,9.477,0,0,1-3.841.72,9.285,9.285,0,0,1-3.636-.686,7.782,7.782,0,0,1-2.744-1.921,8.153,8.153,0,0,1-1.715-2.881,10.511,10.511,0,0,1-.617-3.636,9.713,9.713,0,0,1,.686-3.67,8.019,8.019,0,0,1,1.921-2.881,8.529,8.529,0,0,1,2.95-1.886,10.311,10.311,0,0,1,3.807-.686,10.7,10.7,0,0,1,1.886.172,9.419,9.419,0,0,1,1.681.48,7.19,7.19,0,0,1,1.44.755,6.444,6.444,0,0,1,1.166.96l-1.406,1.886-.309.309a.827.827,0,0,1-.515.137.913.913,0,0,1-.412-.1,2.562,2.562,0,0,1-.412-.24c-.137-.1-.309-.206-.48-.309a5.162,5.162,0,0,0-.617-.309,4.336,4.336,0,0,0-.857-.24,5.31,5.31,0,0,0-1.132-.1,5.012,5.012,0,0,0-2.058.412,4.9,4.9,0,0,0-1.612,1.132,5.077,5.077,0,0,0-1.029,1.784,7.442,7.442,0,0,0-.377,2.367,7.562,7.562,0,0,0,.377,2.435,4.787,4.787,0,0,0,1.029,1.783,4.273,4.273,0,0,0,1.509,1.1,4.83,4.83,0,0,0,1.852.377,9.123,9.123,0,0,0,1.029-.069,3.483,3.483,0,0,0,.857-.206,5.051,5.051,0,0,0,.755-.343,3.344,3.344,0,0,0,.72-.549l.309-.206c.034.034.171,0,.274,0" transform="translate(-148.835 -82.031)" fill="#1d1e1c"/>
        <path id="Union_5" data-name="Union 5" d="M77.171,17.7a7.38,7.38,0,0,1-2.435-1.544,6.511,6.511,0,0,1-1.51-2.366,8.587,8.587,0,0,1-.514-3.018V.171h4.15v10.6a5.109,5.109,0,0,0,.24,1.681,3.764,3.764,0,0,0,.686,1.269,3.1,3.1,0,0,0,1.1.789,4.923,4.923,0,0,0,1.578.274,3.9,3.9,0,0,0,1.475-.274,2.59,2.59,0,0,0,1.1-.789,3.03,3.03,0,0,0,.686-1.269,5.109,5.109,0,0,0,.24-1.681V.171h4.15v10.6a7.876,7.876,0,0,1-.549,3.018,6.16,6.16,0,0,1-1.544,2.366A7.052,7.052,0,0,1,83.585,17.7a9.644,9.644,0,0,1-6.414,0ZM57.93,17.527a9.156,9.156,0,0,1-2.95-1.921,8.4,8.4,0,0,1-1.886-2.915,9.484,9.484,0,0,1-.686-3.6,9.483,9.483,0,0,1,.686-3.6A8.469,8.469,0,0,1,57.93.686,9.66,9.66,0,0,1,61.737,0a9.782,9.782,0,0,1,3.807.72,9.18,9.18,0,0,1,2.915,1.921,8.556,8.556,0,0,1,1.886,2.881,8.82,8.82,0,0,1,.686,3.566,9.484,9.484,0,0,1-.686,3.6A8.706,8.706,0,0,1,68.459,15.6a8.467,8.467,0,0,1-2.915,1.921,9.66,9.66,0,0,1-3.807.685,10.323,10.323,0,0,1-3.807-.682ZM59.611,3.773A4.441,4.441,0,0,0,58.032,4.9a5.018,5.018,0,0,0-.994,1.784,7.52,7.52,0,0,0-.343,2.4,7.521,7.521,0,0,0,.343,2.4A4.564,4.564,0,0,0,59.61,14.4a5.233,5.233,0,0,0,2.126.377,5.877,5.877,0,0,0,2.126-.377,4.311,4.311,0,0,0,1.578-1.132,5.008,5.008,0,0,0,.995-1.784,7.38,7.38,0,0,0,.343-2.4,7.52,7.52,0,0,0-.343-2.4,4.569,4.569,0,0,0-2.572-2.916A5.233,5.233,0,0,0,61.737,3.4a5.877,5.877,0,0,0-2.126.373ZM19.722,17.527a9.156,9.156,0,0,1-2.95-1.921,8.4,8.4,0,0,1-1.886-2.915,9.484,9.484,0,0,1-.686-3.6,9.483,9.483,0,0,1,.686-3.6,8.469,8.469,0,0,1,4.836-4.8A9.66,9.66,0,0,1,23.529,0a9.662,9.662,0,0,1,3.807.72,9.18,9.18,0,0,1,2.915,1.921,8.556,8.556,0,0,1,1.886,2.881,8.808,8.808,0,0,1,.686,3.566,8.864,8.864,0,0,1-.686,3.6A8.7,8.7,0,0,1,30.251,15.6a8.467,8.467,0,0,1-2.915,1.921,9.66,9.66,0,0,1-3.807.685,10.323,10.323,0,0,1-3.807-.682ZM21.436,3.773A4.432,4.432,0,0,0,19.859,4.9a5.008,5.008,0,0,0-1,1.784,7.52,7.52,0,0,0-.343,2.4,7.522,7.522,0,0,0,.343,2.4A4.569,4.569,0,0,0,21.436,14.4a5.233,5.233,0,0,0,2.126.377,5.881,5.881,0,0,0,2.127-.377,4.317,4.317,0,0,0,1.578-1.132,5.008,5.008,0,0,0,1-1.784,8.456,8.456,0,0,0,.343-2.4,7.52,7.52,0,0,0-.343-2.4A4.726,4.726,0,0,0,27.267,4.9,4.761,4.761,0,0,0,25.69,3.773,5.237,5.237,0,0,0,23.563,3.4a5.876,5.876,0,0,0-2.127.373ZM34.813,18.109V.206h2.195a2.248,2.248,0,0,1,.445-.035.584.584,0,0,1,.343.1.535.535,0,0,1,.274.206,1.539,1.539,0,0,1,.309.343l8.506,10.736c-.034-.343-.068-.686-.068-.995s-.035-.617-.035-.926V.171h3.67v17.9h-2.16a2.08,2.08,0,0,1-.823-.137,1.847,1.847,0,0,1-.651-.549L38.38,6.722c.035.309.035.617.069.926,0,.309.035.583.035.857v9.6ZM5.007,18.041V3.464H0V.171H14.2V3.464H9.158V18.041Z" transform="translate(110.943 42.269)" fill="#1d1e1c"/>
        <path id="Union_4" data-name="Union 4" d="M70.38,17.458a6.227,6.227,0,0,1-2.161-1.475,7.391,7.391,0,0,1-1.406-2.3A8.258,8.258,0,0,1,66.3,10.7a8.258,8.258,0,0,1,.515-2.984,6.474,6.474,0,0,1,1.406-2.3A5.651,5.651,0,0,1,70.38,3.944a7.672,7.672,0,0,1,5.522,0,6.231,6.231,0,0,1,2.16,1.475,7.378,7.378,0,0,1,1.406,2.3,9.07,9.07,0,0,1,.48,2.984,9.07,9.07,0,0,1-.48,2.984,6.474,6.474,0,0,1-1.406,2.3,5.648,5.648,0,0,1-2.16,1.475,7.672,7.672,0,0,1-5.522,0Zm.411-12.725A5.6,5.6,0,0,0,68.974,6a5.594,5.594,0,0,0-1.166,2.024A8.1,8.1,0,0,0,67.4,10.7a8.1,8.1,0,0,0,.412,2.675A6.137,6.137,0,0,0,68.974,15.4a5.264,5.264,0,0,0,1.818,1.27,6.423,6.423,0,0,0,2.332.445,5.936,5.936,0,0,0,2.366-.445,4.854,4.854,0,0,0,1.818-1.27,5.608,5.608,0,0,0,1.166-2.024,7.838,7.838,0,0,0,.411-2.675,8.121,8.121,0,0,0-.411-2.675A5.614,5.614,0,0,0,77.309,6,5.271,5.271,0,0,0,75.49,4.733a6.409,6.409,0,0,0-4.7,0ZM42.324,17.458a6.227,6.227,0,0,1-2.161-1.475,7.4,7.4,0,0,1-1.406-2.3,8.258,8.258,0,0,1-.514-2.984,8.258,8.258,0,0,1,.514-2.984,6.483,6.483,0,0,1,1.406-2.3A5.656,5.656,0,0,1,42.324,3.94a7.672,7.672,0,0,1,5.522,0,6.224,6.224,0,0,1,2.16,1.475,7.392,7.392,0,0,1,1.407,2.3,9.07,9.07,0,0,1,.48,2.984,9.07,9.07,0,0,1-.48,2.984,6.485,6.485,0,0,1-1.407,2.3,5.648,5.648,0,0,1-2.16,1.475A7.672,7.672,0,0,1,42.324,17.458ZM42.7,4.733A5.262,5.262,0,0,0,40.884,6a5.594,5.594,0,0,0-1.166,2.024,8.1,8.1,0,0,0-.412,2.675,8.1,8.1,0,0,0,.412,2.675A6.124,6.124,0,0,0,40.884,15.4,5.264,5.264,0,0,0,42.7,16.67a6.286,6.286,0,0,0,2.332.445A5.936,5.936,0,0,0,47.4,16.67a4.846,4.846,0,0,0,1.818-1.27,5.588,5.588,0,0,0,1.166-2.024A7.821,7.821,0,0,0,50.8,10.7a8.1,8.1,0,0,0-.412-2.675A5.594,5.594,0,0,0,49.218,6,5.262,5.262,0,0,0,47.4,4.733,6.409,6.409,0,0,0,42.7,4.733ZM98.848,17.869V4.459H93.806V3.567h11.078v.891H99.876V17.869Zm-6.242,0a.641.641,0,0,1-.275-.069,1.069,1.069,0,0,1-.24-.206l-4.561-5.8a1.081,1.081,0,0,0-.377-.309,1.434,1.434,0,0,0-.617-.1H84.648v6.448h-1.03V3.567h3.636a5.9,5.9,0,0,1,3.7.96A3.318,3.318,0,0,1,92.193,7.34a4.367,4.367,0,0,1-.274,1.509,3.142,3.142,0,0,1-.823,1.2,4.047,4.047,0,0,1-1.269.823,5.263,5.263,0,0,1-1.681.412,1.671,1.671,0,0,1,.446.411l4.9,6.174Zm-7.957-7.237h2.469a5.46,5.46,0,0,0,1.715-.24,3.426,3.426,0,0,0,1.27-.651,2.6,2.6,0,0,0,.789-1.029,3.457,3.457,0,0,0,.274-1.338,2.636,2.636,0,0,0-1-2.264,4.944,4.944,0,0,0-2.916-.72H84.648Zm-29.12,7.237V3.6H59.2a5.631,5.631,0,0,1,3.773,1.1,3.867,3.867,0,0,1,1.268,3.12A4.034,4.034,0,0,1,63.9,9.535a4.849,4.849,0,0,1-1,1.372,4.716,4.716,0,0,1-1.578.891,6.765,6.765,0,0,1-2.127.309H56.558v5.762Zm.995-6.585H59.2a5.08,5.08,0,0,0,1.681-.275,3.821,3.821,0,0,0,1.269-.72,3.087,3.087,0,0,0,.789-1.1,3.619,3.619,0,0,0,.275-1.372,3.162,3.162,0,0,0-1.029-2.538,4.527,4.527,0,0,0-3.018-.892H56.524ZM36.151,17.869a.64.64,0,0,1-.275-.069,1.084,1.084,0,0,1-.24-.206l-4.6-5.8a1.068,1.068,0,0,0-.377-.309,1.43,1.43,0,0,0-.617-.1H28.193v6.448H27.165V3.567H30.8a5.9,5.9,0,0,1,3.7.96A3.319,3.319,0,0,1,35.739,7.34a4.367,4.367,0,0,1-.275,1.509,3.142,3.142,0,0,1-.823,1.2,4.047,4.047,0,0,1-1.269.823,5.254,5.254,0,0,1-1.68.412,1.669,1.669,0,0,1,.445.411l4.9,6.174Zm-7.957-7.237h2.469a5.46,5.46,0,0,0,1.715-.24,3.426,3.426,0,0,0,1.27-.651,2.6,2.6,0,0,0,.789-1.029,3.457,3.457,0,0,0,.274-1.338,2.636,2.636,0,0,0-.994-2.264A4.945,4.945,0,0,0,30.8,4.39H28.193Zm-13.24,7.237V3.6h8.54v.823H15.983v5.762h6.242v.823H15.983v6h7.511v.857Zm-3.052,0a.49.49,0,0,1-.24-.069.312.312,0,0,1-.137-.205l-1.682-4.15h-7L1.166,17.6a.718.718,0,0,1-.137.2.288.288,0,0,1-.24.069H0L5.831,3.6H6.86l5.831,14.268ZM6.174,5.076c-.034.137-.1.274-.137.411L3.121,12.656H9.5l-2.915-7.2c-.035-.1-.1-.24-.137-.377s-.1-.309-.137-.446C6.277,4.8,6.208,4.939,6.174,5.076ZM23.494,3.6Zm0-.034V3.6ZM18.178,2.332,20.476.24A.6.6,0,0,1,20.75.069a1.056,1.056,0,0,1,.377-.035H22.18l-2.9,2.161a.756.756,0,0,0-.171.1.432.432,0,0,1-.206.035Zm4-2.3L22.225,0V.034Z" transform="translate(94.205 62.028)" fill="#706f70"/>
      </g>
    </g>
  </g>
</svg>
